<svg width="459.59999999999997" height="135.38682037187354" viewBox="0 0 352.7750511749425 103.91882612075813" class="css-1j8o68f"><defs id="SvgjsDefs1918"></defs><g id="SvgjsG1920" featurekey="nameLeftFeature-0" transform="matrix(2.2163915707664112,0,0,2.2163915707664112,-1.5514747336512027,-12.766411727474868)" fill="#235784"><path d="M5.78 5.76 c2.46 0 4.02 1.54 4.76 2.9 l-2.16 1.28 c-0.76 -1.06 -1.5 -1.6 -2.6 -1.6 c-0.98 0 -1.7 0.58 -1.7 1.38 s0.46 1.22 1.56 1.62 l0.96 0.34 c3.1 1.1 4.32 2.48 4.32 4.4 c0 2.82 -2.68 4.22 -5.06 4.22 c-2.52 0 -4.48 -1.5 -5.16 -3.46 l2.24 -1.18 c0.5 1.02 1.34 2 2.92 2 c1.14 0 2.02 -0.5 2.02 -1.54 c0 -1 -0.6 -1.44 -2.12 -2.02 l-0.86 -0.3 c-2.06 -0.74 -3.72 -1.76 -3.72 -4.2 c0 -2.24 2.1 -3.84 4.6 -3.84 z M21.380000000000003 6 l2.92 0 l0 14 l-2.92 0 l0 -5.66 l-5.64 0 l0 5.66 l-2.92 0 l0 -14 l2.92 0 l0 5.66 l5.64 0 l0 -5.66 z M29.62 6 l0 14 l-2.92 0 l0 -14 l2.92 0 z M43.2 6 l3.12 0 l-6.24 14 l-2.64 0 l-6.22 -14 l3.1 0 l4.44 10.42 z"></path></g><g id="SvgjsG1921" featurekey="inlineSymbolFeature-0" transform="matrix(0.46949633297619286,0,0,0.46949633297619286,104.64412950922616,-7.361596976149334)" fill="#235784"><title xmlns="http://www.w3.org/2000/svg">Untitled-2-24</title><path xmlns="http://www.w3.org/2000/svg" data-name="Compound Path" d="M85,15.68H15a5.53,5.53,0,0,0-5.55,5.53V71.39H90.58V21.21A5.53,5.53,0,0,0,85,15.68Zm0,49.46a.59.59,0,0,1-.6.59H15.58a.6.6,0,0,1-.6-.59V21.61a.59.59,0,0,1,.6-.59H84.42a.59.59,0,0,1,.6.59Z"></path><path xmlns="http://www.w3.org/2000/svg" data-name="Path" d="M96.9,74.79a.22.22,0,0,1,.21.25,10.94,10.94,0,0,1-10.83,9.28H13.72A10.94,10.94,0,0,1,2.89,75a.22.22,0,0,1,.21-.25h36a.22.22,0,0,1,.22.21h0a2.35,2.35,0,0,0,2.35,2.35H58.36A2.36,2.36,0,0,0,60.71,75h0a.21.21,0,0,1,.21-.21Z"></path><g xmlns="http://www.w3.org/2000/svg" data-name="Group"><g data-name="Group"><g data-name="Group"><path d="M39.77,38.09a1.33,1.33,0,0,0,.32-.64,3.9,3.9,0,0,0,.09-.78c0-.3,0-.69,0-1.18A4.08,4.08,0,0,0,40,33.8a1,1,0,0,0-.59-.5,1.07,1.07,0,0,0-.88.15l-11,6.72,0,0a1.11,1.11,0,0,0-.35.39,1.62,1.62,0,0,0-.2.55c0,.17-.06.39-.08.63s0,.53,0,.86a7.91,7.91,0,0,0,.1,1.48,1.52,1.52,0,0,0,.58,1l11.08,6.76a1.51,1.51,0,0,0,.58.22h.11a.87.87,0,0,0,.74-.45,2,2,0,0,0,.22-.78,10.1,10.1,0,0,0,.05-1.09c0-.51,0-.92,0-1.22a4.7,4.7,0,0,0-.13-.82,1.39,1.39,0,0,0-.39-.67,2.87,2.87,0,0,0-.46-.33L32,42.65l7.38-4.25A1.68,1.68,0,0,0,39.77,38.09Z"></path></g><g data-name="Group"><path d="M73.22,41.78a4.63,4.63,0,0,0-.08-.64,1.86,1.86,0,0,0-.19-.55,1.23,1.23,0,0,0-.36-.39L61.5,33.45a1.07,1.07,0,0,0-.88-.15.92.92,0,0,0-.58.5,3.91,3.91,0,0,0-.24,1.69c0,.49,0,.88,0,1.18a6.27,6.27,0,0,0,.09.78,1.38,1.38,0,0,0,.32.64,2.44,2.44,0,0,0,.41.32L68,42.65,60.8,46.74a2.87,2.87,0,0,0-.46.33,1.39,1.39,0,0,0-.39.67,4,4,0,0,0-.12.82h0c0,.3,0,.71,0,1.22a10.56,10.56,0,0,0,0,1.09,2,2,0,0,0,.22.78.87.87,0,0,0,.74.45h.11a1.57,1.57,0,0,0,.6-.23L72.6,45.09a1.51,1.51,0,0,0,.55-1,7.82,7.82,0,0,0,.11-1.48A7,7,0,0,0,73.22,41.78Z"></path></g></g><g data-name="Group"><path d="M47,59.4a1,1,0,0,1-.21.39,1.1,1.1,0,0,1-.36.25,2.6,2.6,0,0,1-.58.14,7.24,7.24,0,0,1-.88,0,6.42,6.42,0,0,1-1.08-.07,1.89,1.89,0,0,1-.64-.22.56.56,0,0,1-.25-.39,1.26,1.26,0,0,1,.07-.55l9.64-31.3a.93.93,0,0,1,.19-.4.83.83,0,0,1,.35-.25,2,2,0,0,1,.59-.14,7.23,7.23,0,0,1,.88,0,6.39,6.39,0,0,1,1.09.07,1.58,1.58,0,0,1,.62.23.53.53,0,0,1,.24.38,1.36,1.36,0,0,1,0,.55Z"></path><path d="M45,60.43a6.8,6.8,0,0,1-1.12-.08,1.77,1.77,0,0,1-.71-.25.74.74,0,0,1-.34-.53,1.35,1.35,0,0,1,.07-.64l9.64-31.3a1.29,1.29,0,0,1,.23-.47,1,1,0,0,1,.44-.32,2.75,2.75,0,0,1,.64-.15,7.58,7.58,0,0,1,.9-.05,6.84,6.84,0,0,1,1.13.08,1.83,1.83,0,0,1,.7.26.74.74,0,0,1,.33.52,1.6,1.6,0,0,1-.06.63L47.19,59.47a1.44,1.44,0,0,1-.25.46,1.18,1.18,0,0,1-.44.3,2.62,2.62,0,0,1-.64.15A7.33,7.33,0,0,1,45,60.43Zm9.75-33.37a6.92,6.92,0,0,0-.85,0,2.14,2.14,0,0,0-.54.13.69.69,0,0,0-.27.19.73.73,0,0,0-.15.32L43.25,59.05a1.13,1.13,0,0,0,0,.46.3.3,0,0,0,.16.24,1.44,1.44,0,0,0,.56.2A7,7,0,0,0,45,60a6.47,6.47,0,0,0,.85-.05,2.16,2.16,0,0,0,.53-.13.65.65,0,0,0,.28-.18.88.88,0,0,0,.17-.32L56.42,28a1.56,1.56,0,0,0,0-.46.36.36,0,0,0-.16-.24,1.28,1.28,0,0,0-.54-.19A5.88,5.88,0,0,0,54.71,27.06Z"></path></g></g></g><g id="SvgjsG1922" featurekey="nameRightFeature-0" transform="matrix(2.2535898628162627,0,0,2.2535898628162627,152.29569259445864,-13.521537027706804)" fill="#235784"><path d="M10.26 20 l-4.34 -6 l-1.72 1.96 l0 4.04 l-3 0 l0 -14 l3 0 l0 6.1 l5.18 -6.1 l3.6 0 l-5.26 5.96 l5.9 8.04 l-3.36 0 z M23.22 6 l2.92 0 l0 8.92 c0 3.4 -2.46 5.38 -5.4 5.38 s-5.42 -1.98 -5.42 -5.38 l0 -8.92 l2.92 0 l0 8.94 c0 2.04 1.34 2.62 2.5 2.62 c1.14 0 2.48 -0.58 2.48 -2.62 l0 -8.94 z M43.540000000000006 6 l0 14 l-3 0 l0 -7.44 l-3.26 7.44 l-2.52 0 l-3.22 -7.4 l0 7.4 l-3 0 l0 -14 l2.88 0 l4.62 10.1 l4.62 -10.1 l2.88 0 z M57.12000000000001 20 l-1.06 -2.5 l-6.76 0 l-1.06 2.5 l-3.1 0 l6.22 -14 l2.64 0 l6.24 14 l-3.12 0 z M50.32000000000001 15.120000000000001 l4.72 0 l-2.36 -5.54 z M72.86000000000001 20 l-3.1 0 l-2.98 -4.66 l-0.04 0 l-1.98 0 l0 4.66 l-2.92 0 l0 -14 l4.9 0 c3.14 0 5.18 1.9 5.18 4.76 c0 1.9 -0.92 3.32 -2.48 4.04 z M64.76 8.68 l0 4.14 l1.8 0 c1.44 0 2.44 -0.56 2.44 -2.06 c0 -1.48 -1 -2.08 -2.44 -2.08 l-1.8 0 z M85.84 20 l-1.06 -2.5 l-6.76 0 l-1.06 2.5 l-3.1 0 l6.22 -14 l2.64 0 l6.24 14 l-3.12 0 z M79.04 15.120000000000001 l4.72 0 l-2.36 -5.54 z"></path></g></svg>